<mxfile host="app.diagrams.net" modified="2023-11-28T16:47:38.014Z" agent="Mozilla/5.0 (Windows NT 10.0; Win64; x64) AppleWebKit/537.36 (KHTML, like Gecko) Chrome/119.0.0.0 Safari/537.36" etag="mEFfItPKT-z5kY4qdQ7a" version="21.3.7" type="github">
  <diagram name="第 1 页" id="ysFKY6A8lfonN8vlUyxI">
    <mxGraphModel dx="934" dy="553" grid="1" gridSize="10" guides="1" tooltips="1" connect="1" arrows="1" fold="1" page="1" pageScale="1" pageWidth="827" pageHeight="1169" math="0" shadow="0">
      <root>
        <mxCell id="0" />
        <mxCell id="1" parent="0" />
        <mxCell id="SNz0SdHo7FogPlAg8ahP-39" value="" style="rounded=1;whiteSpace=wrap;html=1;fillColor=none;dashed=1;dashPattern=8 8;" vertex="1" parent="1">
          <mxGeometry x="360" y="100" width="410" height="210" as="geometry" />
        </mxCell>
        <mxCell id="SNz0SdHo7FogPlAg8ahP-1" value="" style="rounded=0;whiteSpace=wrap;html=1;" vertex="1" parent="1">
          <mxGeometry x="60" y="90" width="250" height="230" as="geometry" />
        </mxCell>
        <mxCell id="SNz0SdHo7FogPlAg8ahP-4" value="TCMs Database" style="text;html=1;align=center;verticalAlign=middle;resizable=0;points=[];autosize=1;strokeColor=none;fillColor=none;" vertex="1" parent="1">
          <mxGeometry x="130" y="90" width="110" height="30" as="geometry" />
        </mxCell>
        <mxCell id="SNz0SdHo7FogPlAg8ahP-8" value="" style="rounded=0;whiteSpace=wrap;html=1;" vertex="1" parent="1">
          <mxGeometry x="75" y="120" width="220" height="190" as="geometry" />
        </mxCell>
        <mxCell id="SNz0SdHo7FogPlAg8ahP-5" value="" style="rounded=0;whiteSpace=wrap;html=1;align=center;" vertex="1" parent="1">
          <mxGeometry x="90" y="150" width="190" height="100" as="geometry" />
        </mxCell>
        <mxCell id="SNz0SdHo7FogPlAg8ahP-6" value="Single-object Sub-dataset" style="text;html=1;align=center;verticalAlign=middle;resizable=0;points=[];autosize=1;strokeColor=none;fillColor=none;" vertex="1" parent="1">
          <mxGeometry x="105" y="150" width="160" height="30" as="geometry" />
        </mxCell>
        <mxCell id="SNz0SdHo7FogPlAg8ahP-7" value="Multi-object Sub-dataset&lt;br&gt;Test-set" style="rounded=0;whiteSpace=wrap;html=1;align=center;" vertex="1" parent="1">
          <mxGeometry x="90" y="260" width="190" height="40" as="geometry" />
        </mxCell>
        <mxCell id="SNz0SdHo7FogPlAg8ahP-9" value="TCM Dataset" style="text;html=1;align=center;verticalAlign=middle;resizable=0;points=[];autosize=1;strokeColor=none;fillColor=none;" vertex="1" parent="1">
          <mxGeometry x="140" y="120" width="90" height="30" as="geometry" />
        </mxCell>
        <mxCell id="SNz0SdHo7FogPlAg8ahP-12" value="" style="endArrow=none;dashed=1;html=1;rounded=0;movable=1;resizable=1;rotatable=1;deletable=1;editable=1;locked=0;connectable=1;" edge="1" parent="1">
          <mxGeometry width="50" height="50" relative="1" as="geometry">
            <mxPoint x="185" y="240" as="sourcePoint" />
            <mxPoint x="185" y="180" as="targetPoint" />
          </mxGeometry>
        </mxCell>
        <mxCell id="SNz0SdHo7FogPlAg8ahP-13" value="Training-set" style="text;html=1;align=center;verticalAlign=middle;resizable=0;points=[];autosize=1;strokeColor=none;fillColor=none;" vertex="1" parent="1">
          <mxGeometry x="90" y="195" width="90" height="30" as="geometry" />
        </mxCell>
        <mxCell id="SNz0SdHo7FogPlAg8ahP-14" value="Test-set" style="text;html=1;align=center;verticalAlign=middle;resizable=0;points=[];autosize=1;strokeColor=none;fillColor=none;" vertex="1" parent="1">
          <mxGeometry x="195" y="195" width="70" height="30" as="geometry" />
        </mxCell>
        <mxCell id="SNz0SdHo7FogPlAg8ahP-15" value="" style="html=1;shadow=0;dashed=0;align=center;verticalAlign=middle;shape=mxgraph.arrows2.arrow;dy=0.29;dx=18;notch=0;" vertex="1" parent="1">
          <mxGeometry x="320" y="170" width="30" height="70" as="geometry" />
        </mxCell>
        <mxCell id="SNz0SdHo7FogPlAg8ahP-26" style="edgeStyle=orthogonalEdgeStyle;rounded=0;orthogonalLoop=1;jettySize=auto;html=1;entryX=0.008;entryY=0.331;entryDx=0;entryDy=0;entryPerimeter=0;" edge="1" parent="1" source="SNz0SdHo7FogPlAg8ahP-16" target="SNz0SdHo7FogPlAg8ahP-22">
          <mxGeometry relative="1" as="geometry" />
        </mxCell>
        <mxCell id="SNz0SdHo7FogPlAg8ahP-16" value="Single-object&lt;br&gt;Training&lt;br&gt;Data&lt;br&gt;Input" style="rounded=0;whiteSpace=wrap;html=1;" vertex="1" parent="1">
          <mxGeometry x="370" y="132.5" width="50" height="155" as="geometry" />
        </mxCell>
        <mxCell id="SNz0SdHo7FogPlAg8ahP-27" style="edgeStyle=orthogonalEdgeStyle;rounded=0;orthogonalLoop=1;jettySize=auto;html=1;entryX=0;entryY=0.5;entryDx=0;entryDy=0;" edge="1" parent="1" source="SNz0SdHo7FogPlAg8ahP-17" target="SNz0SdHo7FogPlAg8ahP-18">
          <mxGeometry relative="1" as="geometry" />
        </mxCell>
        <mxCell id="SNz0SdHo7FogPlAg8ahP-17" value="" style="rounded=0;whiteSpace=wrap;html=1;" vertex="1" parent="1">
          <mxGeometry x="445" y="127.5" width="160" height="165" as="geometry" />
        </mxCell>
        <mxCell id="SNz0SdHo7FogPlAg8ahP-28" style="edgeStyle=orthogonalEdgeStyle;rounded=0;orthogonalLoop=1;jettySize=auto;html=1;entryX=0;entryY=0.5;entryDx=0;entryDy=0;" edge="1" parent="1" source="SNz0SdHo7FogPlAg8ahP-18" target="SNz0SdHo7FogPlAg8ahP-20">
          <mxGeometry relative="1" as="geometry" />
        </mxCell>
        <mxCell id="SNz0SdHo7FogPlAg8ahP-18" value="Region&lt;br&gt;Proposal&lt;br&gt;Network" style="rounded=0;whiteSpace=wrap;html=1;" vertex="1" parent="1">
          <mxGeometry x="630" y="143.62" width="60" height="132.75" as="geometry" />
        </mxCell>
        <mxCell id="SNz0SdHo7FogPlAg8ahP-20" value="Detector&lt;br&gt;Head" style="rounded=0;whiteSpace=wrap;html=1;" vertex="1" parent="1">
          <mxGeometry x="710" y="155" width="50" height="110" as="geometry" />
        </mxCell>
        <mxCell id="SNz0SdHo7FogPlAg8ahP-21" value="&lt;b&gt;Multi-level Feature Fusion&lt;br&gt;&amp;nbsp;Framework&lt;/b&gt;" style="text;html=1;align=center;verticalAlign=middle;resizable=0;points=[];autosize=1;strokeColor=none;fillColor=none;" vertex="1" parent="1">
          <mxGeometry x="440" y="137.25" width="170" height="40" as="geometry" />
        </mxCell>
        <mxCell id="SNz0SdHo7FogPlAg8ahP-22" value="Receptive Field Controling&lt;br&gt;Architecture&lt;br&gt;&amp;amp;&lt;br&gt;Feature Resolution &lt;br&gt;Enhancement&amp;nbsp;Algorithm" style="text;html=1;align=center;verticalAlign=middle;resizable=0;points=[];autosize=1;strokeColor=none;fillColor=none;" vertex="1" parent="1">
          <mxGeometry x="445" y="180" width="160" height="90" as="geometry" />
        </mxCell>
        <mxCell id="SNz0SdHo7FogPlAg8ahP-30" value="TCMnet" style="text;html=1;align=center;verticalAlign=middle;resizable=0;points=[];autosize=1;strokeColor=none;fillColor=none;fontStyle=1" vertex="1" parent="1">
          <mxGeometry x="530" y="97.5" width="70" height="30" as="geometry" />
        </mxCell>
        <mxCell id="SNz0SdHo7FogPlAg8ahP-31" value="" style="html=1;shadow=0;dashed=0;align=center;verticalAlign=middle;shape=mxgraph.arrows2.arrow;dy=0.29;dx=18;notch=0;" vertex="1" parent="1">
          <mxGeometry x="780" y="175" width="30" height="70" as="geometry" />
        </mxCell>
        <mxCell id="SNz0SdHo7FogPlAg8ahP-33" value="" style="rounded=0;whiteSpace=wrap;html=1;" vertex="1" parent="1">
          <mxGeometry x="820" y="143.62" width="120" height="130" as="geometry" />
        </mxCell>
        <mxCell id="SNz0SdHo7FogPlAg8ahP-34" value="Testing" style="text;html=1;align=center;verticalAlign=middle;resizable=0;points=[];autosize=1;strokeColor=none;fillColor=none;fontStyle=1" vertex="1" parent="1">
          <mxGeometry x="845" y="146.12" width="70" height="30" as="geometry" />
        </mxCell>
        <mxCell id="SNz0SdHo7FogPlAg8ahP-36" value="" style="endArrow=none;dashed=1;html=1;rounded=0;" edge="1" parent="1">
          <mxGeometry width="50" height="50" relative="1" as="geometry">
            <mxPoint x="830" y="218.12" as="sourcePoint" />
            <mxPoint x="930" y="218.12" as="targetPoint" />
          </mxGeometry>
        </mxCell>
        <mxCell id="SNz0SdHo7FogPlAg8ahP-37" value="Single-object Data&lt;br&gt;Testing" style="text;html=1;align=center;verticalAlign=middle;resizable=0;points=[];autosize=1;strokeColor=none;fillColor=none;" vertex="1" parent="1">
          <mxGeometry x="820" y="173.62" width="120" height="40" as="geometry" />
        </mxCell>
        <mxCell id="SNz0SdHo7FogPlAg8ahP-38" value="Multi-object Data&lt;br&gt;Testing&amp;nbsp;" style="text;html=1;align=center;verticalAlign=middle;resizable=0;points=[];autosize=1;strokeColor=none;fillColor=none;" vertex="1" parent="1">
          <mxGeometry x="825" y="225.62" width="110" height="40" as="geometry" />
        </mxCell>
      </root>
    </mxGraphModel>
  </diagram>
</mxfile>
